<?xml version="1.0" standalone="no"?>
<!DOCTYPE svg PUBLIC "-//W3C//DTD SVG 20010904//EN"
 "http://www.w3.org/TR/2001/REC-SVG-20010904/DTD/svg10.dtd">
<svg version="1.0" xmlns="http://www.w3.org/2000/svg"
 width="260.000000pt" height="260.000000pt" viewBox="0 0 260.000000 260.000000"
 preserveAspectRatio="xMidYMid meet">
<metadata>
Created by potrace 1.11, written by Peter Selinger 2001-2013
</metadata>
<g transform="translate(0.000000,260.000000) scale(0.100000,-0.100000)"
fill="#000000" stroke="none">
<path d="M1265 1401 c-22 -25 -155 -317 -155 -341 0 -45 28 -53 179 -52 180 1
167 -1 185 18 23 23 20 45 -17 126 -19 40 -49 107 -67 148 -18 41 -41 83 -50
93 -23 25 -56 29 -75 8z"/>
<path d="M2120 1030 c-8 -5 -73 -30 -145 -56 -129 -46 -165 -69 -165 -104 0
-10 50 -68 111 -129 88 -89 116 -111 138 -111 16 0 33 6 39 13 12 15 132 334
132 351 0 36 -71 59 -110 36z"/>
<path d="M365 1000 c-22 -24 -18 -38 57 -235 42 -110 58 -142 78 -152 20 -10
29 -9 48 3 42 27 222 218 222 234 0 9 -6 24 -12 33 -14 19 -318 137 -353 137
-12 0 -30 -9 -40 -20z"/>
<path d="M1288 906 c-1 -2 -32 -6 -68 -10 -85 -8 -165 -29 -244 -65 -60 -27
-145 -80 -172 -106 -7 -6 -25 -22 -41 -36 -45 -38 -128 -147 -162 -215 -73
-144 -108 -348 -74 -434 l15 -37 758 0 758 0 15 37 c38 97 -8 325 -96 475
-125 214 -355 360 -597 381 -36 3 -70 7 -77 9 -6 2 -13 2 -15 1z"/>
<path d="M274 273 c-43 -19 -99 -44 -124 -56 -25 -11 -47 -21 -50 -22 -3 -1
-22 -9 -43 -19 -80 -35 -69 -107 18 -121 26 -3 57 -8 68 -11 12 -2 40 -6 62
-9 22 -3 47 -7 55 -10 8 -2 37 -6 64 -10 78 -10 86 3 86 145 0 157 -13 168
-136 113z"/>
<path d="M2210 290 c-18 -18 -20 -33 -20 -130 0 -98 2 -112 21 -131 15 -15 29
-19 47 -16 15 3 90 16 167 28 159 24 186 38 169 86 -6 20 -26 37 -69 58 -87
44 -271 125 -284 125 -6 0 -20 -9 -31 -20z"/>
</g>
</svg>
