<?xml version="1.0" standalone="no"?>
<!DOCTYPE svg PUBLIC "-//W3C//DTD SVG 20010904//EN"
 "http://www.w3.org/TR/2001/REC-SVG-20010904/DTD/svg10.dtd">
<svg version="1.0" xmlns="http://www.w3.org/2000/svg"
 width="260.000000pt" height="260.000000pt" viewBox="0 0 260.000000 260.000000"
 preserveAspectRatio="xMidYMid meet">
<metadata>
Created by potrace 1.11, written by Peter Selinger 2001-2013
</metadata>
<g transform="translate(0.000000,260.000000) scale(0.100000,-0.100000)"
fill="#000000" stroke="none">
<path d="M1278 1418 c-21 -16 -168 -311 -168 -336 0 -11 8 -26 18 -35 16 -14
43 -17 174 -17 137 0 157 2 171 18 10 10 17 27 17 38 -1 30 -163 339 -180 342
-9 1 -23 -3 -32 -10z"/>
<path d="M376 1039 c-16 -24 -15 -28 54 -233 41 -124 60 -156 92 -156 22 0
234 202 244 232 14 44 -18 64 -195 122 -93 31 -172 56 -175 56 -2 0 -11 -9
-20 -21z"/>
<path d="M2025 1003 c-170 -57 -201 -76 -185 -117 9 -25 189 -210 221 -226 29
-16 55 -4 72 33 20 45 107 303 107 319 0 21 -15 38 -36 42 -10 2 -91 -21 -179
-51z"/>
<path d="M1229 936 c-2 -2 -24 -6 -49 -9 -220 -28 -440 -190 -549 -404 -66
-132 -92 -308 -67 -453 l11 -65 719 -3 c396 -1 724 2 728 6 13 13 22 91 21
197 0 199 -70 363 -218 511 -75 75 -105 97 -180 134 -105 51 -120 57 -160 65
-16 3 -41 8 -55 11 -30 6 -196 14 -201 10z"/>
<path d="M232 302 c-85 -42 -158 -85 -163 -95 -15 -26 3 -49 63 -78 29 -15 99
-50 155 -78 111 -56 132 -60 156 -33 14 16 17 43 17 174 0 137 -2 157 -18 171
-10 10 -27 17 -38 17 -10 0 -88 -35 -172 -78z"/>
<path d="M2157 362 c-14 -16 -17 -43 -17 -174 0 -137 2 -157 18 -171 10 -10
26 -17 35 -17 10 0 89 36 176 80 160 80 188 103 162 134 -16 19 -316 166 -339
166 -10 0 -26 -8 -35 -18z"/>
</g>
</svg>
