<svg xmlns="http://www.w3.org/2000/svg" viewBox="0 0 627.78 627.78"><g id="Layer_1" data-name="Layer 1"><path d="M348.15,155.84c6.64,1.58,12.07,13.67,12.07,26.87V445.08c0,13.2-8.3,25.45-18.43,27.22l-18.44,3.23-4.57-2.28-26-13-3.08-1.54-42.92-21.48L200.3,414l-42.92-21.48L21.73,324.63c-11.8-5.91-11.8-15.57,0-21.48l135.65-67.86,42.92-21.48,46.46-23.24,42.92-21.48,3.08-1.54,26-13,4.56-2.28S341.52,154.27,348.15,155.84Z" style="fill:#00467f"/><path d="M606.71,303.15c11.8,5.91,11.8,15.57,0,21.48L470.07,393l-42.92,21.48-45.47,22.74-42.92,21.48-3.08,1.54-26.06,13c-2.53,1.26-10.23,1.66-17.11.88s-24.29-15.67-24.29-28.87V182.51c0-13.2,5.42-25.26,12-26.81s26.84-2.45,29.36-1.19l26.05,13,3.08,1.54,42.92,21.48,45.47,22.74,42.92,21.48Z" style="fill:#00467f"/><path d="M475.8,313.89A161.69,161.69,0,0,1,323.35,475.53h0c-3.13.19-6.27.28-9.45.28-3,0-5.93-.08-8.87-.24a161.91,161.91,0,0,1,0-323.35q4.4-.24,8.85-.24,4.75,0,9.44.27h0A161.87,161.87,0,0,1,475.8,313.89Z" style="fill:#00467f"/><circle cx="313.89" cy="313.89" r="134" style="fill:#fff"/><circle cx="313.89" cy="313.89" r="67" style="fill:#00467f"/></g></svg>