<svg xmlns="http://www.w3.org/2000/svg" viewBox="0 0 627.78 627.78"><title>Artboard 6</title><g id="Layer_1" data-name="Layer 1"><path d="M324.62,292.25c-5.9-11.81-15.56-11.81-21.46,0l-32.54,65.06c-5.9,11.81.07,21.47,13.27,21.47h60c13.2,0,19.17-9.66,13.27-21.47Z" style="fill:#ff8000"/><path d="M539.21,389.64c4.17-12.52-2.66-19.35-15.18-15.18l-69,23c-12.53,4.18-15.13,15.23-5.8,24.56l42.43,42.43c9.33,9.33,20.38,6.73,24.56-5.8Z" style="fill:#ff8000"/><path d="M603.42,592.51c11.81-5.9,11.81-15.56,0-21.46l-65.06-32.54c-11.81-5.9-21.47.07-21.47,13.27v60c0,13.2,9.66,19.17,21.47,13.27Z" style="fill:#ff8000"/><path d="M24.36,571.05c-11.81,5.9-11.81,15.56,0,21.46l65.06,32.54c11.81,5.9,21.47-.07,21.47-13.27v-60c0-13.2-9.66-19.17-21.47-13.27Z" style="fill:#ff8000"/><path d="M104.75,374.46c-12.52-4.17-19.35,2.66-15.18,15.18l23,69c4.18,12.53,15.23,15.13,24.56,5.8L179.56,422c9.33-9.33,6.73-20.38-5.8-24.56Z" style="fill:#ff8000"/><path d="M493.89,581.78a179.81,179.81,0,0,1-5.94,46H139.83a180,180,0,1,1,354.06-46Z" style="fill:#ff8000"/><path d="M324.62,473.05c-5.9-11.81-15.56-11.81-21.46,0L252.62,574.12c-5.9,11.8.07,21.46,13.27,21.46h96c13.2,0,19.17-9.66,13.27-21.46Z" style="fill:#fff"/></g></svg>