<svg id="Layer_1" data-name="Layer 1" xmlns="http://www.w3.org/2000/svg" viewBox="0 0 596.78 344.39"><title>Artboard 2</title><path d="M309.12,9.25c-5.9-11.81-15.56-11.81-21.46,0L255.12,74.31c-5.9,11.81.07,21.47,13.27,21.47h60c13.2,0,19.17-9.66,13.27-21.47Z" style="fill:#ff8000"/><path d="M523.71,106.64c4.17-12.52-2.66-19.35-15.18-15.18l-69,23c-12.53,4.18-15.14,15.23-5.8,24.56l42.42,42.43c9.34,9.33,20.39,6.73,24.56-5.8Z" style="fill:#ff8000"/><path d="M587.92,309.51c11.81-5.9,11.81-15.56,0-21.46l-65.07-32.54c-11.8-5.9-21.46.07-21.46,13.27v60c0,13.2,9.66,19.17,21.46,13.27Z" style="fill:#ff8000"/><path d="M8.85,288.05c-11.8,5.9-11.8,15.56,0,21.46l65.07,32.54c11.81,5.9,21.47-.07,21.47-13.27v-60c0-13.2-9.66-19.17-21.47-13.27Z" style="fill:#ff8000"/><path d="M89.25,91.46c-12.53-4.17-19.36,2.66-15.18,15.18l23,69c4.18,12.53,15.23,15.13,24.56,5.8L164.06,139c9.33-9.33,6.72-20.38-5.8-24.56Z" style="fill:#ff8000"/><path d="M478.39,298.78a179.81,179.81,0,0,1-5.94,46H124.33a180,180,0,1,1,354.06-46Z" style="fill:#ff8000"/><path d="M309.12,311.12c-5.9,11.8-15.56,11.8-21.46,0L237.12,210.05c-5.9-11.81.07-21.47,13.27-21.47h96c13.2,0,19.17,9.66,13.27,21.47Z" style="fill:#fff"/></svg>